<?xml version="1.0" encoding="UTF-8"?><svg id="Layer_1" xmlns="http://www.w3.org/2000/svg" width="20" height="20" viewBox="0 0 20 20"><defs><style>.cls-1{stroke-width:0px;}</style></defs><path class="cls-1" d="M16.96,4.02c-1.3-.6-2.69-1.03-4.13-1.27-.18.31-.38.74-.53,1.07-1.54-.22-3.06-.22-4.58,0-.14-.33-.35-.76-.53-1.07-1.46.24-2.84.68-4.13,1.27C.44,7.88-.27,11.65.08,15.37c1.74,1.26,3.42,2.03,5.06,2.54.4-.55.77-1.13,1.08-1.75-.6-.22-1.16-.5-1.71-.82.14-.1.28-.21.41-.32,3.29,1.51,6.86,1.51,10.12,0,.14.11.27.22.41.32-.55.32-1.11.6-1.71.82.31.62.68,1.2,1.08,1.75,1.65-.51,3.34-1.27,5.06-2.54.43-4.31-.69-8.05-2.95-11.35h.03ZM6.69,13.08c-.99,0-1.8-.9-1.8-2s.79-2,1.8-2,1.82.9,1.8,2c0,1.1-.8,2-1.8,2ZM13.33,13.08c-.99,0-1.8-.9-1.8-2s.79-2,1.8-2,1.82.9,1.8,2c0,1.1-.79,2-1.8,2Z"/></svg>