<?xml version="1.0" encoding="UTF-8"?><svg id="Layer_1" xmlns="http://www.w3.org/2000/svg" width="20px" height="20px" viewBox="0 0 24 22.8"><defs><style>.cls-1{fill-rule:evenodd;stroke-width:0px;}</style></defs><path class="cls-1" d="M22.8,3.55c.01.73-.08,1.64-.16,2.31-.03.26-.07.48-.12.65,1.03,1.9,1.48,4.19,1.48,6.69,0,2.96-1.42,5.4-3.64,7.06-2.2,1.65-5.16,2.54-8.36,2.54s-6.16-.89-8.36-2.54c-2.22-1.66-3.64-4.1-3.64-7.06,0-2.5.45-4.79,1.48-6.69-.05-.18-.09-.39-.12-.65-.08-.67-.17-1.58-.16-2.31.01-.82.12-1.64.24-2.45.05-.38.14-.73.55-.95C2.41-.09,2.85,0,3.28.12c1.46.41,2.83.99,4.12,1.69,1.36-.41,2.89-.62,4.6-.62s3.24.21,4.6.62c1.29-.7,2.66-1.28,4.12-1.69.43-.12.87-.21,1.29.02.41.22.5.58.55.95.12.81.23,1.63.24,2.45ZM21.6,13.2c0-2.02-.47-4.8-3-4.8-1.14,0-2.22.3-3.3.6-1.08.3-2.16.6-3.3.6s-2.22-.3-3.3-.6c-1.08-.3-2.16-.6-3.3-.6-2.53,0-3,2.78-3,4.8,0,2.12.99,3.88,2.68,5.14,1.71,1.28,4.15,2.06,6.92,2.06s5.21-.77,6.92-2.06c1.69-1.27,2.68-3.03,2.68-5.14ZM9.6,13.8c0,1.66-.81,3-1.8,3s-1.8-1.34-1.8-3,.81-3,1.8-3,1.8,1.34,1.8,3ZM16.2,16.8c.99,0,1.8-1.34,1.8-3s-.81-3-1.8-3-1.8,1.34-1.8,3,.81,3,1.8,3Z"/></svg>