<?xml version="1.0" encoding="utf-8"?>
<!-- Generator: Adobe Illustrator 28.2.0, SVG Export Plug-In . SVG Version: 6.00 Build 0)  -->
<svg version="1.1" id="Layer_1" xmlns="http://www.w3.org/2000/svg" xmlns:xlink="http://www.w3.org/1999/xlink" x="0px" y="0px"
	 viewBox="0 0 24 24" style="enable-background:new 0 0 24 24;" xml:space="preserve">
<style type="text/css">
	.st0{opacity:0.25;enable-background:new    ;}
	.st1{fill:#FF3D00;}
</style>
<path class="st0" d="M12,1C5.9,1,1,5.9,1,12s4.9,11,11,11s11-4.9,11-11S18.1,1,12,1z M12,20c-4.4,0-8-3.6-8-8s3.6-8,8-8s8,3.6,8,8
	S16.4,20,12,20z"/>
<path class="st1" d="M12,4c3.9,0,7.3,2.8,7.9,6.7c0.1,0.7,0.7,1.3,1.5,1.3l0,0c0.8,0,1.5-0.7,1.5-1.5c0-0.1,0-0.2,0-0.3
	c-1-6-6.6-10.1-12.6-9.1c-4.7,0.8-8.4,4.4-9.1,9.1C1,11.1,1.6,11.8,2.4,12c0.1,0,0.2,0,0.3,0l0,0c0.7,0,1.4-0.6,1.5-1.3
	C4.7,6.8,8.1,4,12,4z"/>
</svg>
