<?xml version="1.0" encoding="UTF-8"?><svg id="vlpa" xmlns="http://www.w3.org/2000/svg" width="93px" height="42px" viewBox="0 0 91.99 41.76"><defs><style>.cls-1{opacity:.5;}.cls-2{fill:#fd4100;stroke-width:0px;}</style></defs><path class="cls-2" d="M58.97,31.53c-5.14,2.87-12.41,4.85-20.71,4.85-14.95,0-27.07-5.97-27.07-15.76,0-10.4,12.12-16.14,27.07-16.14,8.33,0,15.63,1.62,20.77,4.43C53.43,4.21,43.37,0,31.88,0,14.27,0,0,9.23,0,20.62c0,10.34,14.27,19.85,31.87,19.85,11.45,0,21.48-4.15,27.1-8.95h0Z"/><g id="vlpb"><path class="cls-2" d="M88.89,28h-.76v1.97h-.66v-1.97h-.76v-.57h2.17v.57h.01Z"/><path class="cls-2" d="M89.17,27.44h.97l.44,1.69h0l.44-1.69h.97v2.54h-.62v-1.93h0l-.53,1.93h-.5l-.53-1.93h0v1.93h-.62v-2.54h-.02Z"/></g><path class="cls-2" d="M21.68,23.44c0,.66.12,1.22.36,1.67.22.44.55.82.95,1.11.42.3.89.51,1.39.63.54.14,1.09.21,1.65.21.41,0,.83-.03,1.24-.1.43-.06.84-.19,1.24-.37.37-.17.7-.43.96-.75.25-.32.38-.73.38-1.22.02-.48-.17-.95-.51-1.29-.39-.36-.84-.64-1.33-.82-.61-.24-1.23-.43-1.87-.58-.7-.16-1.4-.35-2.11-.55-.73-.18-1.44-.41-2.14-.67-.67-.25-1.3-.6-1.87-1.03-.55-.42-1.01-.96-1.33-1.58-.34-.63-.51-1.39-.51-2.29,0-1.01.21-1.88.64-2.62.42-.73,1-1.37,1.69-1.85.72-.5,1.51-.88,2.36-1.1.86-.23,1.74-.35,2.63-.36.99,0,1.98.11,2.95.34.9.21,1.75.59,2.51,1.11.73.51,1.32,1.18,1.74,1.96.43.8.64,1.76.64,2.89h-4.17c-.02-.51-.14-1-.37-1.45-.2-.37-.48-.68-.84-.91-.37-.23-.77-.38-1.19-.47-.48-.09-.98-.14-1.47-.13-.35,0-.7.04-1.04.11s-.66.2-.95.38c-.28.18-.52.41-.7.69-.19.31-.29.68-.27,1.04-.01.33.06.65.22.93.15.24.43.46.86.66.58.25,1.17.45,1.78.6.76.2,1.76.46,2.98.77.37.07.87.21,1.52.4.69.21,1.34.52,1.93.92.66.44,1.23,1.02,1.66,1.69.47.7.7,1.61.7,2.7,0,.86-.17,1.71-.52,2.5-.35.78-.88,1.46-1.55,1.99-.69.56-1.54.99-2.55,1.3-1.01.31-2.19.47-3.53.47-1.06,0-2.12-.13-3.14-.4-.97-.24-1.88-.67-2.69-1.25-.78-.57-1.41-1.31-1.85-2.17-.46-.88-.68-1.92-.66-3.13h4.17v.02Z"/><path class="cls-2" d="M40.22,22.32l-7.19-11.97h4.83l4.58,7.74,4.56-7.74h4.8l-7.27,12.07v7.52h-4.31v-7.62Z"/><path class="cls-2" d="M65.11,16.94c-.07-.48-.24-.94-.49-1.36-.26-.41-.58-.78-.96-1.08-.39-.31-.83-.56-1.3-.73-.49-.17-1-.26-1.52-.26-.97,0-1.79.19-2.47.56-.66.36-1.23.88-1.65,1.51-.43.66-.74,1.39-.92,2.15-.19.82-.29,1.66-.29,2.5s.1,1.62.29,2.4c.18.75.49,1.46.92,2.1.42.62.99,1.14,1.65,1.5.68.37,1.5.56,2.47.56,1.32,0,2.35-.4,3.09-1.21.74-.8,1.19-1.87,1.36-3.18h4.17c-.09,1.15-.38,2.27-.85,3.32-.43.95-1.05,1.81-1.81,2.52-.76.7-1.66,1.24-2.63,1.59-1.07.38-2.19.56-3.32.55-1.5,0-2.85-.26-4.05-.78-1.15-.49-2.19-1.23-3.03-2.15-.84-.94-1.48-2.04-1.9-3.23-.45-1.28-.67-2.63-.66-3.99,0-1.39.21-2.76.66-4.07.41-1.21,1.05-2.32,1.89-3.28.84-.94,1.87-1.69,3.03-2.2,1.2-.53,2.55-.8,4.05-.8,1.04,0,2.07.15,3.06.47.93.3,1.8.76,2.57,1.36.77.6,1.41,1.35,1.88,2.21.51.93.83,1.96.93,3.02,0,0-4.17,0-4.17,0Z"/><path class="cls-2" d="M70.98,10.35h4.31v15.97h9.55v3.62h-13.86V10.35Z"/><g class="cls-1"><path class="cls-2" d="M62.61,40.62c.19,0,.33.05.43.16s.15.24.15.4-.05.29-.15.39c-.1.1-.25.16-.43.16s-.32-.05-.43-.15c-.1-.1-.16-.23-.16-.39s.05-.29.15-.4c.1-.11.25-.16.43-.16h0Z"/><path class="cls-2" d="M68.8,36.5h-1.88v5.18h-1.04v-5.18h-1.86v-.84h4.78v.84Z"/><path class="cls-2" d="M73.11,38.99h-2.48v1.85h2.89v.84h-3.94v-6.03h3.91v.84h-2.86v1.66h2.48v.83h0Z"/><path class="cls-2" d="M78.98,39.72c-.06.64-.3,1.14-.71,1.5s-.96.54-1.65.54c-.48,0-.9-.11-1.27-.34-.37-.23-.65-.55-.85-.97-.2-.42-.3-.91-.31-1.46v-.56c0-.57.1-1.07.3-1.5.2-.43.49-.77.87-1s.81-.35,1.31-.35c.67,0,1.2.18,1.61.54s.64.87.71,1.53h-1.04c-.05-.43-.18-.75-.38-.94s-.5-.29-.89-.29c-.46,0-.81.17-1.05.5-.24.33-.37.82-.37,1.46v.53c0,.65.12,1.15.35,1.49.23.34.57.51,1.02.51.41,0,.72-.09.93-.28.21-.18.34-.49.39-.92h1.04-.01Z"/><path class="cls-2" d="M84.7,41.68h-1.04v-2.67h-2.69v2.67h-1.05v-6.03h1.05v2.51h2.69v-2.51h1.04v6.03Z"/></g></svg>