<?xml version="1.0" encoding="utf-8"?>
<!-- Generator: Adobe Illustrator 28.2.0, SVG Export Plug-In . SVG Version: 6.00 Build 0)  -->
<svg version="1.1" id="vlpa" xmlns="http://www.w3.org/2000/svg" xmlns:xlink="http://www.w3.org/1999/xlink" x="0px" y="0px"
	 viewBox="0 0 93 42" style="enable-background:new 0 0 93 42;" xml:space="preserve">
<style type="text/css">
	.st0{fill:#FD4100;}
</style>
<path class="st0" d="M59.5,31.7c-5.2,2.9-12.5,4.9-20.8,4.9c-15,0-27.2-6-27.2-15.9c0-10.5,12.2-16.2,27.2-16.2
	c8.4,0,15.7,1.6,20.9,4.5C54,4.2,43.9,0,32.3,0C14.6,0,0.2,9.3,0.2,20.7c0,10.4,14.4,20,32.1,20C43.8,40.7,53.9,36.5,59.5,31.7
	L59.5,31.7L59.5,31.7z"/>
<g id="vlpb">
	<path class="st0" d="M89.6,28.2h-0.8v2h-0.7v-2h-0.8v-0.6h2.2L89.6,28.2C89.6,28.2,89.6,28.2,89.6,28.2z"/>
	<path class="st0" d="M89.9,27.6h1l0.4,1.7l0,0l0.4-1.7h1v2.6h-0.6v-1.9l0,0l-0.5,1.9h-0.5l-0.5-1.9l0,0v1.9h-0.6L89.9,27.6
		C89.9,27.6,89.9,27.6,89.9,27.6z"/>
</g>
<path class="st0" d="M22,23.6c0,0.7,0.1,1.2,0.4,1.7c0.2,0.4,0.6,0.8,1,1.1c0.4,0.3,0.9,0.5,1.4,0.6c0.5,0.1,1.1,0.2,1.7,0.2
	c0.4,0,0.8,0,1.2-0.1c0.4-0.1,0.8-0.2,1.2-0.4c0.4-0.2,0.7-0.4,1-0.8c0.3-0.3,0.4-0.7,0.4-1.2c0-0.5-0.2-1-0.5-1.3
	c-0.4-0.4-0.8-0.6-1.3-0.8c-0.6-0.2-1.2-0.4-1.9-0.6c-0.7-0.2-1.4-0.4-2.1-0.6c-0.7-0.2-1.4-0.4-2.2-0.7c-0.7-0.3-1.3-0.6-1.9-1
	c-0.6-0.4-1-1-1.3-1.6c-0.3-0.6-0.5-1.4-0.5-2.3c0-1,0.2-1.9,0.6-2.6c0.4-0.7,1-1.4,1.7-1.9c0.7-0.5,1.5-0.9,2.4-1.1
	c0.9-0.2,1.8-0.4,2.6-0.4c1,0,2,0.1,3,0.3c0.9,0.2,1.8,0.6,2.5,1.1c0.7,0.5,1.3,1.2,1.8,2c0.4,0.8,0.6,1.8,0.6,2.9h-4.2
	c0-0.5-0.1-1-0.4-1.5c-0.2-0.4-0.5-0.7-0.8-0.9c-0.4-0.2-0.8-0.4-1.2-0.5c-0.5-0.1-1-0.1-1.5-0.1c-0.4,0-0.7,0-1,0.1
	c-0.3,0.1-0.7,0.2-1,0.4c-0.3,0.2-0.5,0.4-0.7,0.7c-0.2,0.3-0.3,0.7-0.3,1c0,0.3,0.1,0.7,0.2,0.9c0.2,0.2,0.4,0.5,0.9,0.7
	c0.6,0.3,1.2,0.5,1.8,0.6c0.8,0.2,1.8,0.5,3,0.8c0.4,0.1,0.9,0.2,1.5,0.4c0.7,0.2,1.3,0.5,1.9,0.9c0.7,0.4,1.2,1,1.7,1.7
	c0.5,0.7,0.7,1.6,0.7,2.7c0,0.9-0.2,1.7-0.5,2.5c-0.4,0.8-0.9,1.5-1.6,2c-0.7,0.6-1.5,1-2.6,1.3s-2.2,0.5-3.6,0.5
	c-1.1,0-2.1-0.1-3.2-0.4c-1-0.2-1.9-0.7-2.7-1.3c-0.8-0.6-1.4-1.3-1.9-2.2c-0.5-0.9-0.7-1.9-0.7-3.1L22,23.6L22,23.6L22,23.6z"/>
<path class="st0" d="M40.7,22.4l-7.2-12h4.9l4.6,7.8l4.6-7.8h4.8L45,22.5v7.6h-4.3V22.4z"/>
<path class="st0" d="M65.7,17c-0.1-0.5-0.2-0.9-0.5-1.4c-0.3-0.4-0.6-0.8-1-1.1c-0.4-0.3-0.8-0.6-1.3-0.7c-0.5-0.2-1-0.3-1.5-0.3
	c-1,0-1.8,0.2-2.5,0.6c-0.7,0.4-1.2,0.9-1.7,1.5c-0.4,0.7-0.7,1.4-0.9,2.2c-0.2,0.8-0.3,1.7-0.3,2.5s0.1,1.6,0.3,2.4
	c0.2,0.8,0.5,1.5,0.9,2.1c0.4,0.6,1,1.1,1.7,1.5c0.7,0.4,1.5,0.6,2.5,0.6c1.3,0,2.4-0.4,3.1-1.2c0.7-0.8,1.2-1.9,1.4-3.2h4.2
	c-0.1,1.2-0.4,2.3-0.9,3.3c-0.4,1-1.1,1.8-1.8,2.5c-0.8,0.7-1.7,1.2-2.6,1.6c-1.1,0.4-2.2,0.6-3.3,0.6c-1.5,0-2.9-0.3-4.1-0.8
	c-1.2-0.5-2.2-1.2-3-2.2c-0.8-0.9-1.5-2.1-1.9-3.2c-0.5-1.3-0.7-2.6-0.7-4c0-1.4,0.2-2.8,0.7-4.1c0.4-1.2,1.1-2.3,1.9-3.3
	c0.8-0.9,1.9-1.7,3-2.2c1.2-0.5,2.6-0.8,4.1-0.8c1,0,2.1,0.2,3.1,0.5c0.9,0.3,1.8,0.8,2.6,1.4c0.8,0.6,1.4,1.4,1.9,2.2
	c0.5,0.9,0.8,2,0.9,3C69.9,17,65.7,17,65.7,17z"/>
<path class="st0" d="M71.6,10.4H76v16.1h9.6v3.6H71.6V10.4z"/>
</svg>
