<?xml version="1.0" encoding="UTF-8"?><svg id="Layer_1" xmlns="http://www.w3.org/2000/svg" width="20px" height="20px" viewBox="0 0 24.01 24.01"><defs><style>.cls-1{fill:#0f0f0f;fill-rule:evenodd;stroke-width:0px;}</style></defs><path class="cls-1" d="M22.85,12c.71-.69,1.15-1.66,1.15-2.73,0-2.11-1.71-3.82-3.82-3.82-.59,0-1.14.13-1.64.37v-2c0-2.11-1.7-3.82-3.81-3.82-1.07,0-2.04.44-2.73,1.15-.69-.71-1.66-1.15-2.73-1.15-2.11,0-3.82,1.71-3.82,3.82,0,.59.13,1.14.37,1.64h-2c-2.11,0-3.82,1.71-3.82,3.82,0,1.07.44,2.03,1.15,2.73-.71.69-1.15,1.66-1.15,2.73,0,2.11,1.71,3.82,3.82,3.82.59,0,1.14-.13,1.64-.37v2c0,2.11,1.71,3.82,3.82,3.82,1.07,0,2.03-.44,2.73-1.15.69.71,1.66,1.15,2.73,1.15,2.11,0,3.82-1.71,3.82-3.82,0-.59-.13-1.14-.37-1.64h2c2.11,0,3.82-1.71,3.82-3.82,0-1.07-.44-2.03-1.15-2.73h0ZM9.27,2.18c.9,0,1.64.73,1.64,1.64v1.64h-1.64c-.9,0-1.64-.73-1.64-1.64s.73-1.64,1.64-1.64ZM13.09,3.82c0-.9.73-1.64,1.64-1.64s1.64.73,1.64,1.64v7.09h-3.27V3.82h-.01ZM10.91,10.91v-3.27H3.82c-.9,0-1.64.73-1.64,1.64s.73,1.64,1.64,1.64h7.09ZM18.55,10.91h1.64c.9,0,1.64-.73,1.64-1.64s-.73-1.64-1.64-1.64-1.64.73-1.64,1.64v1.64ZM20.18,13.09h-7.09v3.27h7.09c.9,0,1.64-.73,1.64-1.64s-.73-1.64-1.64-1.64h0ZM14.73,18.55h-1.64v1.64c0,.9.73,1.64,1.64,1.64s1.64-.73,1.64-1.64-.73-1.64-1.64-1.64ZM10.91,13.09h-3.27v7.09c0,.9.73,1.64,1.64,1.64s1.64-.73,1.64-1.64v-7.09h-.01ZM3.82,13.09h1.64v1.64c0,.9-.73,1.64-1.64,1.64s-1.64-.73-1.64-1.64.73-1.64,1.64-1.64Z"/></svg>