<?xml version="1.0" encoding="UTF-8"?><svg id="Layer_1" xmlns="http://www.w3.org/2000/svg" width="20px" height="20px" viewBox="0 0 24 20.06"><defs><style>.cls-1{fill-rule:evenodd;stroke-width:0px;}</style></defs><path class="cls-1" d="M15.24,2.31c-1.95,0-3.54,1.58-3.54,3.54,0,.24.02.47.07.69.07.36-.03.73-.28,1s-.61.4-.98.36c-2.53-.31-4.83-1.36-6.68-2.91.04.69.28,1.42.79,2.19l.78,1.15-1.28.55-.25.11c.18.21.4.42.65.64.28.24.55.44.75.58.1.07.18.12.23.16.03.02.05.03.06.04h.01l1.77,1.08-1.86.93c-.09.05-.18.09-.27.12.37.31.83.6,1.31.83l1.59.75-1.33,1.15c-.73.63-1.46,1.1-2.41,1.34,1.41.75,3.02,1.18,4.73,1.18,5.51,0,9.94-4.39,9.94-9.78v-.6l.49-.34c.76-.53,1.3-1.26,1.68-2.08h-2.48l-.31-.65c-.57-1.2-1.79-2.02-3.19-2.02h0ZM2.32,10.67c-.22.25-.32.58-.27.91.13.92.68,1.71,1.29,2.31.16.16.34.32.53.47-.03,0-.06.02-.09.02-.55.14-1.29.17-2.53.05-.48-.05-.94.21-1.14.64-.21.43-.12.95.21,1.3,2.22,2.28,5.35,3.69,8.8,3.69,6.54,0,11.91-5.08,12.22-11.5,1.48-1.24,2.22-2.92,2.62-4.45.09-.34.02-.71-.2-.99-.22-.28-.55-.45-.91-.45h-2.7c-1.04-1.61-2.84-2.67-4.9-2.67-3.06,0-5.57,2.36-5.81,5.35-2.14-.56-4.02-1.77-5.41-3.41-.25-.3-.64-.45-1.03-.4-.39.05-.72.3-.89.66-.69,1.51-.83,3.26-.05,5.04l-.27.11c-.53.23-.81.81-.65,1.37.21.75.69,1.41,1.18,1.93h0v.02Z"/></svg>