<?xml version="1.0" encoding="utf-8"?><!-- Uploaded to: SVG Repo, www.svgrepo.com, Generator: SVG Repo Mixer Tools -->
<svg width="800px" height="800px" viewBox="0 0 24 24" xmlns="http://www.w3.org/2000/svg" id="world" class="icon glyph"><path d="M8.5,12c0,1,0,2,.12,3L8.39,15a12.36,12.36,0,0,0-3.08,1.35,10.06,10.06,0,0,0-1.61,1.2,10,10,0,0,1,0-11.14,10.06,10.06,0,0,0,1.61,1.2A12.29,12.29,0,0,0,8.38,9L8.62,9C8.54,10,8.5,11,8.5,12ZM4.3,5.62A9.55,9.55,0,0,0,5.91,6.83,11.11,11.11,0,0,0,8.66,8h0a24.72,24.72,0,0,1,.6-3.55,11,11,0,0,1,.79-2.3A10.05,10.05,0,0,0,4.3,5.62Zm9.61-3.44a11,11,0,0,1,.79,2.3A24.72,24.72,0,0,1,15.3,8h0a11.18,11.18,0,0,0,2.76-1.19A9.55,9.55,0,0,0,19.7,5.62,10.05,10.05,0,0,0,13.91,2.18ZM9.68,15.73a24.3,24.3,0,0,0,.74,4.12A7.82,7.82,0,0,0,11.31,22L12,22l.69,0a7.82,7.82,0,0,0,.89-2.13,24.3,24.3,0,0,0,.74-4.12A11.69,11.69,0,0,0,9.68,15.73ZM14.4,9.27A12.6,12.6,0,0,1,12,9.5a12.6,12.6,0,0,1-2.4-.23c-.07.85-.1,1.77-.1,2.73s0,1.88.1,2.74a12.7,12.7,0,0,1,4.8,0c.07-.85.1-1.77.1-2.73S14.47,10.12,14.4,9.27Zm-.82-5.12A7.82,7.82,0,0,0,12.69,2L12,2l-.69,0a7.82,7.82,0,0,0-.89,2.13,24.3,24.3,0,0,0-.74,4.12,11.69,11.69,0,0,0,4.64,0A24.3,24.3,0,0,0,13.58,4.15ZM20.3,6.43a10.06,10.06,0,0,1-1.61,1.2A12.36,12.36,0,0,1,15.61,9L15.38,9c.08,1,.12,2,.12,3s0,2-.12,3l.24.06a12.29,12.29,0,0,1,3.07,1.35,10.06,10.06,0,0,1,1.61,1.2,10,10,0,0,0,0-11.14ZM18.09,17.17A11.11,11.11,0,0,0,15.34,16h0a24.72,24.72,0,0,1-.6,3.55,11,11,0,0,1-.79,2.3,10.05,10.05,0,0,0,5.79-3.44A9.55,9.55,0,0,0,18.09,17.17ZM9.3,19.52A24.72,24.72,0,0,1,8.7,16h0a11.18,11.18,0,0,0-2.76,1.19A9.55,9.55,0,0,0,4.3,18.38a10.05,10.05,0,0,0,5.79,3.44A11,11,0,0,1,9.3,19.52Z" style="fill:#231f20"></path></svg>