<?xml version="1.0" encoding="utf-8"?>
<!-- Generator: Adobe Illustrator 28.2.0, SVG Export Plug-In . SVG Version: 6.00 Build 0)  -->
<svg version="1.1" id="Layer_1" xmlns="http://www.w3.org/2000/svg" xmlns:xlink="http://www.w3.org/1999/xlink" x="0px" y="0px"
	 viewBox="0 0 866.6 326.4" style="enable-background:new 0 0 866.6 326.4;" xml:space="preserve">
<style type="text/css">
	.st0{fill:#67C52A;}
	.st1{fill:#3C3C3F;}
	.st2{opacity:0.2;}
</style>
<path class="st0" d="M325.4,117.3v24.4c-2.1-2.8-4.7-4.9-7.8-6.4c-3.2-1.5-6.5-2.2-10-2.2c-6.2,0-11.2,2.1-15.1,6.2
	c-3.9,4.2-5.8,9.3-5.8,15.5c0,6.2,2,11.3,5.9,15.3c3.9,4,9,6,15.3,6c3.3,0,6.5-0.7,9.7-2.2c3.1-1.5,5.7-3.5,7.9-6.1v24.4
	c-7.9,2.4-13.9,3.6-18,3.6c-11.1,0-20.9-3.8-29.4-11.5c-8.4-7.5-12.6-17.4-12.6-29.6c0-11.2,3.8-20.8,11.5-28.7
	c3.9-3.9,8.4-7,13.7-9.3c5.3-2.2,10.6-3.4,16.1-3.4C312.8,113.4,319,114.7,325.4,117.3L325.4,117.3z M363.8,117.9
	c6.6-3.4,13.6-5,21.2-5c7.5,0,14.6,1.7,21.2,5c6.6,3.4,11.9,8.2,16,14.4c4.1,6.2,6.1,13.2,6.1,20.9c0,12.7-4.1,23-12.2,31.1
	c-8.1,8.1-18.5,12.1-31.1,12.1c-12.6,0-23-4-31.1-12.1c-8.1-8.1-12.2-18.4-12.2-31.1c0-7.7,2-14.6,6.1-20.9
	C351.9,126,357.2,121.2,363.8,117.9z M400.6,138.8c-4.4-4.2-9.6-6.2-15.6-6.2s-11.2,2.1-15.6,6.2c-4.4,4.2-6.5,9-6.5,14.4
	c0,6.6,2.1,12.2,6.4,16.7s9.5,6.7,15.7,6.7s11.4-2.2,15.7-6.7c4.3-4.5,6.4-10,6.4-16.7C407.1,147.8,405,143,400.6,138.8z
	 M440.9,193.7l13.3-78.3h20l15.9,41.9l16.8-41.9h20.3l11.8,78.3h-20.4l-5.7-45.1h-0.2l-18.8,45.1h-8.1l-18-45.1h-0.2l-6.5,45.1
	H440.9z M556.7,193.7v-78.3h31.2c8.8,0,15.7,2.1,20.8,6.4s7.6,10.7,7.6,19.4c0,17.7-9.2,26.6-27.7,26.6h-11.5v26L556.7,193.7
	L556.7,193.7z M577.1,131.8v19.5h3.4c1.9,0,3.4,0,4.4-0.1c1,0,2.3-0.2,3.8-0.6c1.6-0.3,2.7-0.8,3.5-1.5c0.8-0.6,1.4-1.6,2-2.8
	c0.6-1.2,0.9-2.8,0.9-4.7s-0.3-3.5-0.8-4.8c-0.6-1.3-1.2-2.3-2-3c-0.8-0.7-1.9-1.2-3.4-1.5c-1.5-0.3-2.8-0.5-3.8-0.6
	c-1.1-0.1-2.6-0.1-4.6-0.1h-3.4L577.1,131.8z M653.4,115.4v78.3H633v-78.3H653.4z M696,115.4v61.1h24.4v17.2h-44.8v-78.3H696z
	 M779.8,132.7h-24.2v13.1h23V163h-23v13.5h24.2v17.2h-44.6v-78.3h44.6V132.7z M842,161.7l24.6,32.1h-25.3l-19.2-30.1h-0.2v30.1
	h-20.5v-78.3h30.4c8.2,0,14.7,2,19.7,6s7.5,10,7.5,18.1c0,5.6-1.5,10.5-4.5,14.5C851.6,158.2,847.4,160.7,842,161.7z M821.8,131
	v19.5h2c9.4,0,14.1-3.3,14.1-9.8s-4.7-9.8-14.1-9.8h-2V131z M216.2,258.3c-1.1-2.1-1.1-4.6,0-6.6c1.4-2.5,2.6-5,3.8-7.6
	c0.8-1.9-0.5-4-2.6-4h-22.5c-2.3,0-4.5,1.2-5.7,3.1c-2.9,4.4-6.3,8.7-10.1,12.5c-14.5,14.5-33.7,22.4-54.1,22.4
	c-20.5,0-39.7-8-54.1-22.4c-14.6-14.4-22.5-33.6-22.5-54.1s8-39.7,22.4-54.1c14.5-14.5,33.7-22.4,54.1-22.4c20.5,0,39.7,8,54.1,22.4
	c3.9,3.9,7.2,8.1,10.1,12.5c1.3,1.9,3.4,3.1,5.7,3.1h22.6c2.1,0,3.4-2.1,2.6-4c-1.2-2.6-2.4-5.1-3.8-7.6c-1.1-2.1-1.1-4.6,0-6.6
	l7.6-13.8c1.5-2.7,1-6-1.2-8.2l-19.1-19.1c-2.2-2.2-5.5-2.6-8.2-1.2l-13.9,7.7c-2.1,1.1-4.6,1.1-6.6,0c-6.6-3.6-13.6-6.5-20.8-8.6
	c-2.3-0.7-4.1-2.4-4.7-4.7l-4.4-15.2c-0.9-2.9-3.5-5-6.6-5h-27c-3.1,0-5.8,2-6.6,5L100.3,97c-0.7,2.3-2.4,4-4.7,4.7
	c-7.2,2.1-14.2,5-20.8,8.6c-2.1,1.1-4.6,1.2-6.6,0l-13.9-7.7c-2.7-1.5-6-1-8.2,1.2L27,122.9c-2.2,2.2-2.6,5.5-1.2,8.2l7.7,13.9
	c1.1,2.1,1.1,4.6,0,6.6c-3.6,6.6-6.5,13.6-8.6,20.8c-0.7,2.3-2.4,4.1-4.7,4.7L5,181.5c-2.9,0.9-5,3.5-5,6.6v27c0,3.1,2,5.8,5,6.6
	l15.2,4.4c2.3,0.7,4,2.4,4.7,4.7c2.1,7.2,5,14.2,8.6,20.8c1.1,2.1,1.2,4.6,0,6.6l-7.7,13.9c-1.5,2.7-1,6,1.2,8.2l19.1,19.1
	c2.2,2.2,5.5,2.6,8.2,1.2l13.9-7.7c2.1-1.1,4.6-1.1,6.6,0c6.6,3.6,13.6,6.5,20.8,8.6c2.3,0.7,4.1,2.4,4.7,4.7l4.4,15.2
	c0.9,2.9,3.5,5,6.6,5h27c3.1,0,5.8-2,6.6-5l4.4-15.2c0.7-2.3,2.4-4,4.7-4.7c7.2-2.1,14.2-5,20.8-8.6c2.1-1.1,4.6-1.2,6.6,0l13.9,7.7
	c2.7,1.5,6,1,8.2-1.2l19.1-19.1c2.2-2.2,2.6-5.5,1.2-8.2L216.2,258.3z"/>
<path class="st1" d="M310.1,227H286v13h22.8v17.1H286v13.5h24.1v17.1h-44.3v-77.9h44.3V227z M354.7,246.2l-24.9-36.3h24.9l11.9,20.1
	l11.9-20.1h24.9l-24.9,36.3l28.8,41.6h-24.4l-16.3-25.4l-17.9,25.4h-24.5L354.7,246.2z M421.7,287.8v-77.9h31
	c8.7,0,15.6,2.1,20.7,6.4c5.1,4.2,7.6,10.7,7.6,19.3c0,17.6-9.2,26.4-27.6,26.4h-11.5v25.8H421.7z M442,226.2v19.4h3.4
	c1.9,0,3.4,0,4.4-0.1c1,0,2.3-0.2,3.8-0.6c1.5-0.3,2.7-0.8,3.5-1.4s1.4-1.5,2-2.8c0.6-1.2,0.9-2.8,0.9-4.6c0-1.9-0.3-3.5-0.8-4.8
	c-0.6-1.3-1.2-2.3-2-2.9c-0.8-0.7-1.9-1.2-3.4-1.5s-2.8-0.5-3.8-0.6c-1.1-0.1-2.6-0.1-4.6-0.1L442,226.2z M517.6,209.9v60.7h24.3
	v17.1h-44.5v-77.9L517.6,209.9L517.6,209.9z M574.1,212.3c6.5-3.3,13.6-5,21.1-5s14.5,1.7,21.1,5c6.5,3.3,11.8,8.1,15.9,14.3
	s6.1,13.1,6.1,20.8c0,12.6-4,22.9-12.1,30.9s-18.4,12-30.9,12s-22.8-4-30.9-12s-12.1-18.3-12.1-30.9c0-7.6,2-14.6,6.1-20.8
	C562.2,220.4,567.5,215.7,574.1,212.3L574.1,212.3z M610.6,233.1c-4.3-4.1-9.5-6.2-15.5-6.2s-11.2,2.1-15.5,6.2s-6.5,8.9-6.5,14.4
	c0,6.6,2.1,12.1,6.4,16.6c4.3,4.4,9.5,6.7,15.6,6.7s11.3-2.2,15.6-6.7c4.3-4.4,6.4-10,6.4-16.6C617.2,242.1,615,237.3,610.6,233.1z
	 M696.9,255.9l24.5,31.9h-25.2l-19.1-30h-0.2v30h-20.2v-77.9H687c8.1,0,14.7,2,19.6,6c5,4,7.4,10,7.4,18c0,5.6-1.5,10.4-4.5,14.5
	C706.4,252.4,702.2,254.9,696.9,255.9L696.9,255.9z M676.8,225.4v19.4h2c9.4,0,14-3.2,14-9.7s-4.7-9.7-14-9.7H676.8z M779.9,227
	h-24.1v13h22.8v17.1h-22.8v13.5h24.1v17.1h-44.3v-77.9h44.3V227z M841.7,255.9l24.5,31.9H841l-19.1-30h-0.2v30h-20.3v-77.9h30.3
	c8.1,0,14.7,2,19.6,6c5,4,7.4,10,7.4,18c0,5.6-1.5,10.4-4.5,14.5C851.3,252.4,847.1,254.9,841.7,255.9L841.7,255.9z M821.7,225.4
	v19.4h2c9.4,0,14-3.2,14-9.7s-4.7-9.7-14-9.7H821.7z M79.1,162.7h92.7v17.2H79.1V162.7z M79.1,193.3h76.4v17.2H79.1L79.1,193.3z
	 M79.1,223.9h92.7v17.2H79.1V223.9z"/>
<g class="st2">
	<path d="M277.3,43.6v22.3h-4.6V11.1h18.6c5.7,0,10.2,1.5,13.5,4.4c3.3,2.9,4.9,6.9,4.9,12c0,5.1-1.6,9.1-4.8,11.9
		c-3.2,2.8-7.8,4.2-13.8,4.2H277.3z M277.3,39.7h14c4.5,0,7.9-1.1,10.3-3.2c2.4-2.1,3.5-5.1,3.5-8.9c0-3.8-1.2-6.8-3.5-9.1
		c-2.3-2.2-5.7-3.4-10-3.4h-14.3V39.7z"/>
	<path d="M316.1,44.9c0-3.9,0.8-7.4,2.3-10.6c1.5-3.1,3.7-5.6,6.4-7.3c2.8-1.7,5.9-2.6,9.4-2.6c5.4,0,9.8,1.9,13.2,5.7
		c3.4,3.8,5,8.8,5,15.1v0.9c0,3.9-0.8,7.5-2.3,10.6c-1.5,3.1-3.7,5.6-6.4,7.3c-2.8,1.7-5.9,2.6-9.4,2.6c-5.4,0-9.8-1.9-13.1-5.7
		c-3.4-3.8-5.1-8.8-5.1-15.1V44.9z M320.6,46.2c0,4.9,1.3,8.9,3.8,12c2.5,3.1,5.8,4.7,9.9,4.7c4.1,0,7.3-1.6,9.9-4.7
		s3.8-7.2,3.8-12.3v-0.9c0-3.1-0.6-6-1.7-8.5c-1.2-2.6-2.8-4.6-4.8-6c-2.1-1.4-4.5-2.1-7.1-2.1c-4,0-7.3,1.6-9.8,4.7
		c-2.5,3.1-3.8,7.3-3.8,12.3V46.2z"/>
	<path d="M371.4,56.5l0.7,3.5l0.9-3.7l9.8-31.1h3.8l9.7,30.9l1.1,4.3l0.9-3.9l8.3-31.2h4.7l-11.8,40.7h-3.8l-10.4-32.2l-0.5-2.2
		l-0.5,2.3l-10.3,32.2H370l-11.8-40.7h4.6L371.4,56.5z"/>
	<path d="M435.5,66.6c-3.5,0-6.6-0.9-9.4-2.6c-2.8-1.7-5-4.1-6.5-7.1c-1.6-3-2.3-6.5-2.3-10.2v-1.6c0-3.9,0.8-7.4,2.3-10.6
		c1.5-3.1,3.6-5.6,6.3-7.4c2.7-1.8,5.6-2.7,8.8-2.7c4.9,0,8.9,1.7,11.7,5.1c2.9,3.4,4.3,8,4.3,13.8v2.5h-29v0.9
		c0,4.6,1.3,8.5,4,11.5s6,4.6,10,4.6c2.4,0,4.5-0.4,6.4-1.3c1.8-0.9,3.5-2.3,5-4.2l2.8,2.1C446.5,64.2,441.7,66.6,435.5,66.6z
		 M434.6,28.3c-3.4,0-6.2,1.2-8.6,3.7c-2.3,2.5-3.7,5.8-4.2,10h24.4v-0.5c-0.1-3.9-1.2-7.1-3.3-9.5C440.8,29.5,438,28.3,434.6,28.3z
		"/>
	<path d="M478.3,29c-1-0.2-2-0.3-3-0.3c-2.8,0-5.2,0.8-7.1,2.3c-1.9,1.6-3.3,3.8-4.2,6.8v27.9h-4.5V25.2h4.4l0.1,6.5
		c2.4-4.8,6.2-7.2,11.5-7.2c1.3,0,2.2,0.2,3,0.5L478.3,29z"/>
	<path d="M500.4,66.6c-3.5,0-6.6-0.9-9.4-2.6c-2.8-1.7-5-4.1-6.5-7.1s-2.3-6.5-2.3-10.2v-1.6c0-3.9,0.8-7.4,2.3-10.6
		c1.5-3.1,3.6-5.6,6.3-7.4c2.7-1.8,5.6-2.7,8.8-2.7c4.9,0,8.9,1.7,11.7,5.1c2.9,3.4,4.3,8,4.3,13.8v2.5h-29v0.9
		c0,4.6,1.3,8.5,4,11.5s6,4.6,10,4.6c2.4,0,4.5-0.4,6.4-1.3c1.8-0.9,3.5-2.3,5-4.2l2.8,2.1C511.5,64.2,506.7,66.6,500.4,66.6z
		 M499.6,28.3c-3.4,0-6.2,1.2-8.5,3.7c-2.3,2.5-3.7,5.8-4.2,10h24.4v-0.5c-0.1-3.9-1.2-7.1-3.3-9.5C505.7,29.5,503,28.3,499.6,28.3z
		"/>
	<path d="M522.6,45.1c0-6.3,1.4-11.3,4.2-15.1c2.8-3.7,6.6-5.6,11.5-5.6c5.5,0,9.7,2.2,12.6,6.5V8.1h4.5v57.7h-4.2l-0.2-5.4
		c-2.9,4.1-7.1,6.2-12.7,6.2c-4.7,0-8.5-1.9-11.3-5.7c-2.9-3.8-4.3-8.9-4.3-15.3V45.1z M527.2,45.9c0,5.2,1,9.3,3.1,12.3
		c2.1,3,5,4.5,8.8,4.5c5.5,0,9.5-2.4,11.8-7.3V36.3c-2.3-5.3-6.2-7.9-11.7-7.9c-3.8,0-6.7,1.5-8.8,4.5
		C528.2,35.8,527.2,40.1,527.2,45.9z"/>
	<path d="M618.6,45.9c0,6.3-1.4,11.4-4.2,15.1c-2.8,3.7-6.6,5.6-11.3,5.6c-5.7,0-9.9-2.1-12.9-6.3l-0.2,5.6h-4.2V8.1h4.5v23
		c2.9-4.4,7.1-6.7,12.7-6.7c4.8,0,8.6,1.8,11.4,5.5c2.8,3.7,4.2,8.8,4.2,15.3V45.9z M614.1,45.1c0-5.4-1-9.5-3.1-12.4
		c-2.1-2.9-5-4.4-8.8-4.4c-2.9,0-5.3,0.7-7.3,2.1c-2,1.4-3.5,3.5-4.5,6.2V55c2.3,5.1,6.2,7.7,12,7.7c3.7,0,6.6-1.5,8.7-4.4
		C613.1,55.4,614.1,51,614.1,45.1z"/>
	<path d="M641,59.4l11.9-34.2h4.8l-17.4,47.6l-0.9,2.1c-2.2,4.9-5.7,7.4-10.3,7.4c-1.1,0-2.2-0.2-3.5-0.5l0-3.7l2.3,0.2
		c2.2,0,4-0.5,5.4-1.6c1.4-1.1,2.5-3,3.5-5.6l2-5.5l-15.3-40.3h4.9L641,59.4z"/>
</g>
</svg>
