<?xml version="1.0" encoding="UTF-8"?><svg id="svg5" xmlns="http://www.w3.org/2000/svg" width="1101.76" height="237.83" viewBox="0 0 1101.76 237.83"><defs><style>.cls-1{fill:#fff;}.cls-1,.cls-2{stroke-width:0px;}.cls-2{fill:#f03;}</style></defs><g id="layer1"><g id="g2366"><path id="path1412" class="cls-2" d="M172.24,237.83s108.03,0,134.83-7.13c15.09-4.04,26.43-15.7,30.42-30.09,7.36-26.4,7.36-81.93,7.36-81.93,0,0,0-55.18-7.36-81.34-3.98-14.75-15.33-26.16-30.42-30.09C280.27,0,172.24,0,172.24,0c0,0-107.79,0-134.46,7.25-14.85,3.92-26.43,15.34-30.66,30.09C0,63.5,0,118.68,0,118.68c0,0,0,55.53,7.12,81.93,4.22,14.39,15.81,26.04,30.66,30.09,26.68,7.13,134.46,7.13,134.46,7.13h0Z"/><path id="path1414" class="cls-1" d="M225.94,118.91l-89.19-50.54v101.08l89.19-50.54Z"/></g><g id="g2362"><path id="path1418" class="cls-1" d="M441.63,224.75v-64.93l41.26-134.85h-30.8l-15.7,61.24c-3.57,14.03-6.78,28.66-9.16,42.21h-1.9c-1.31-11.89-5.11-27.47-8.92-42.45l-15.22-61h-30.8l40.67,134.85v64.93h30.56Z"/><path id="path1420" class="cls-1" d="M524.41,74.92c-36.03,0-48.4,20.81-48.4,65.64v21.29c0,40.19,7.73,65.4,47.68,65.4s47.8-24.02,47.8-65.4v-21.29c0-40.07-8.09-65.64-47.09-65.64h0ZM539.75,175.04c0,19.5-3.45,31.75-15.93,31.75s-15.7-12.37-15.7-31.75v-48.04c0-16.65,2.38-31.51,15.7-31.51,14.03,0,15.93,15.7,15.93,31.51v48.04Z"/><path id="path1422" class="cls-1" d="M621.58,227.01c17.36,0,28.18-7.25,37.1-20.33h1.31l1.31,18.07h23.66V77.77h-31.39v118.08c-3.33,5.83-11.06,10.11-18.31,10.11-9.16,0-12.01-7.25-12.01-19.38v-108.81h-31.28v110.23c0,23.9,6.9,39,29.61,39h0Z"/><path id="path1424" class="cls-1" d="M747.09,224.75V49.35h36.15v-24.38h-103.34v24.38h36.15v175.4h31.04Z"/><path id="path1426" class="cls-1" d="M807.1,227.01c17.36,0,28.18-7.25,37.1-20.33h1.31l1.31,18.07h23.66V77.77h-31.39v118.08c-3.33,5.83-11.06,10.11-18.31,10.11-9.16,0-12.01-7.25-12.01-19.38v-108.81h-31.27v110.23c0,23.9,6.9,39,29.61,39h0Z"/><path id="path1428" class="cls-1" d="M959.33,74.56c-15.22,0-26.16,6.66-33.41,17.48h-1.55c.95-14.27,1.66-26.4,1.66-36.03V17.12h-30.32l-.12,127.71.12,79.91h26.4l2.26-14.27h.83c7.02,9.63,17.84,15.7,32.23,15.7,23.9,0,34.13-20.57,34.13-64.33v-22.71c0-40.91-4.64-64.57-32.23-64.57h0ZM960.4,161.84c0,27.35-4.04,43.64-16.77,43.64-5.95,0-14.15-2.85-17.84-8.21v-87.4c3.21-8.32,10.35-14.39,18.31-14.39,12.84,0,16.29,15.58,16.29,44v22.36Z"/><path id="path1430" class="cls-1" d="M1101.76,136.75c0-35.44-3.57-61.72-44.36-61.72-38.41,0-46.97,25.57-46.97,63.14v25.8c0,36.63,7.85,63.26,46.02,63.26,30.2,0,45.78-15.1,44-44.35l-26.76-1.43c-.36,18.07-4.52,25.45-16.53,25.45-15.1,0-15.82-14.39-15.82-35.79v-9.99h60.41v-24.38ZM1056.69,94.77c14.51,0,15.58,13.68,15.58,36.86v12.01h-30.92v-12.01c0-22.95.95-36.86,15.34-36.86Z"/></g></g></svg>